<svg width="44" height="44" viewBox="0 0 44 44" fill="none" xmlns="http://www.w3.org/2000/svg">
<g clip-path="url(#clip0_142_1354)">
<path d="M41.7999 33.5546C41.2968 35.7143 40.7147 39.8708 42.7649 43.1459L42.7263 43.2028C42.6659 43.1938 42.5993 43.1834 42.527 43.1714C42.1384 43.1068 41.5855 42.9965 40.9391 42.8144C39.6399 42.4485 37.9954 41.8019 36.5445 40.6828L36.1564 40.3835L35.7265 40.6186C33.811 41.6664 31.6077 42.2695 29.2517 42.2695C26.7874 42.2695 24.4819 41.6134 22.5044 40.4727C31.7394 39.3997 39.2402 32.6886 41.3523 23.9207C42.1188 25.5581 42.5472 27.3745 42.5472 29.2894C42.5472 30.753 42.2872 32.1545 41.8228 33.4761L41.8092 33.5147L41.7999 33.5546Z" stroke="#00365A" stroke-width="1.5"/>
<path d="M9.02141 34.8582C6.39789 36.8793 3.30216 37.8019 1.42201 38.2026C3.70898 33.458 2.92516 27.9024 2.18869 24.7829L2.17961 24.7445L2.16655 24.7072C1.50072 22.8072 1.16502 20.8523 1.16502 18.9027C1.16502 8.9168 9.55327 0.75 19.911 0.75C30.2291 0.75 38.5942 8.85633 38.6566 18.7909V18.9033C38.6566 28.8884 30.2683 37.0556 19.9116 37.056C16.7029 37.056 13.5289 36.2452 10.7334 34.7181L10.7319 34.7173L10.266 34.4641L9.83783 34.2315L9.45125 34.5282L9.02243 34.8574L9.02141 34.8582Z" stroke="#00365A" stroke-width="1.5"/>
</g>
<defs>
<clipPath id="clip0_142_1354">
<rect width="44" height="44" fill="white"/>
</clipPath>
</defs>
</svg>
