<svg width="32" height="32" viewBox="0 0 32 32" fill="none" xmlns="http://www.w3.org/2000/svg">
<path d="M0.0625 0.0625H31.9375V31.9375H0.0625V0.0625Z" stroke="#00365A" stroke-width="0.125"/>
<path d="M4.26241 17.5875C3.14161 15.6992 2.74876 13.4667 3.15764 11.3092C3.56653 9.15172 4.74901 7.21775 6.48302 5.8705C8.21702 4.52325 10.3832 3.85542 12.5748 3.99242C14.7664 4.12943 16.8326 5.06185 18.3853 6.61456C19.938 8.16728 20.8705 10.2335 21.0075 12.4251C21.1445 14.6166 20.4766 16.7829 19.1294 18.5169C17.7821 20.2509 15.8482 21.4334 13.6907 21.8422C11.5332 22.2511 9.30071 21.8583 7.41241 20.7375L4.29991 21.625C4.17167 21.661 4.03614 21.6623 3.90726 21.6286C3.77837 21.5949 3.66079 21.5275 3.56659 21.4333C3.47239 21.3391 3.40499 21.2215 3.3713 21.0926C3.33761 20.9637 3.33886 20.8282 3.37491 20.7L4.26241 17.5875Z" stroke="#00365A" stroke-width="1.5" stroke-linecap="round" stroke-linejoin="round"/>
<path d="M11.5127 21.9875C11.9533 23.2436 12.6673 24.3861 13.6033 25.3325C14.5392 26.279 15.6737 27.0057 16.9248 27.4602C18.1759 27.9147 19.5123 28.0857 20.8375 27.9607C22.1627 27.8357 23.4436 27.4179 24.5877 26.7375V26.7375L27.7002 27.625C27.8284 27.6611 27.964 27.6623 28.0929 27.6286C28.2217 27.5949 28.3393 27.5275 28.4335 27.4333C28.5277 27.3391 28.5951 27.2216 28.6288 27.0927C28.6625 26.9638 28.6612 26.8283 28.6252 26.7L27.7377 23.5875C28.53 22.2575 28.9654 20.7454 29.0016 19.1977C29.0378 17.6501 28.6736 16.1193 27.9442 14.7537C27.2149 13.3881 26.1453 12.2341 24.8389 11.4035C23.5325 10.5728 22.0337 10.0937 20.4877 10.0125" stroke="#00365A" stroke-width="1.5" stroke-linecap="round" stroke-linejoin="round"/>
</svg>
