<svg width="27" height="25" viewBox="0 0 27 25" fill="none" xmlns="http://www.w3.org/2000/svg">
<path d="M7.66016 8.58673H1.66016V2.58673" stroke="#00365A" stroke-width="2" stroke-linecap="round" stroke-linejoin="round"/>
<path d="M21.4602 4.3492C20.4397 3.32722 19.2277 2.51645 17.8936 1.96327C16.5595 1.4101 15.1294 1.12537 13.6852 1.12537C12.2409 1.12537 10.8108 1.4101 9.47672 1.96327C8.14261 2.51645 6.93065 3.32722 5.91016 4.3492L1.66016 8.5867" stroke="#00365A" stroke-width="2" stroke-linecap="round" stroke-linejoin="round"/>
<path d="M19.71 15.6617H25.71V21.6617" stroke="#00365A" stroke-width="2" stroke-linecap="round" stroke-linejoin="round"/>
<path d="M5.91016 19.8992C6.93065 20.9212 8.14261 21.7319 9.47672 22.2851C10.8108 22.8383 12.2409 23.123 13.6852 23.123C15.1294 23.123 16.5595 22.8383 17.8936 22.2851C19.2277 21.7319 20.4397 20.9212 21.4602 19.8992L25.7102 15.6617" stroke="#00365A" stroke-width="2" stroke-linecap="round" stroke-linejoin="round"/>
</svg>
