<svg width="28" height="28" viewBox="0 0 28 28" fill="none" xmlns="http://www.w3.org/2000/svg">
<path d="M14 20C17.3137 20 20 17.3137 20 14C20 10.6863 17.3137 8 14 8C10.6863 8 8 10.6863 8 14C8 17.3137 10.6863 20 14 20Z" stroke="#00365A" stroke-width="1.5" stroke-linecap="round" stroke-linejoin="round"/>
<path d="M22.675 8.08749C22.976 8.51833 23.2394 8.97416 23.4625 9.44999L26.7 11.25C27.1043 13.0606 27.1086 14.9376 26.7125 16.75L23.4625 18.55C23.2394 19.0258 22.976 19.4816 22.675 19.9125L22.7375 23.625C21.3655 24.8753 19.7416 25.8172 17.975 26.3875L14.7875 24.475C14.2632 24.5125 13.7369 24.5125 13.2125 24.475L10.0375 26.375C8.26542 25.8151 6.63615 24.8768 5.26254 23.625L5.32504 19.925C5.02662 19.4882 4.7633 19.0284 4.53754 18.55L1.30004 16.75C0.895785 14.9394 0.891519 13.0624 1.28754 11.25L4.53754 9.44999C4.76064 8.97416 5.0241 8.51833 5.32504 8.08749L5.26254 4.37499C6.6346 3.12469 8.25851 2.18274 10.025 1.61249L13.2125 3.52499C13.7369 3.48748 14.2632 3.48748 14.7875 3.52499L17.9625 1.62499C19.7347 2.18486 21.3639 3.12318 22.7375 4.37499L22.675 8.08749Z" stroke="#00365A" stroke-width="1.5" stroke-linecap="round" stroke-linejoin="round"/>
</svg>
