<svg width="33" height="33" viewBox="0 0 33 33" fill="none" xmlns="http://www.w3.org/2000/svg">
<path d="M0.167969 0.444885H32.043V32.3199H0.167969V0.444885Z" stroke="#00365A" stroke-width="0.125"/>
<path d="M16.1055 22.3824C19.4192 22.3824 22.1055 19.6961 22.1055 16.3824C22.1055 13.0687 19.4192 10.3824 16.1055 10.3824C12.7918 10.3824 10.1055 13.0687 10.1055 16.3824C10.1055 19.6961 12.7918 22.3824 16.1055 22.3824Z" stroke="#00365A" stroke-width="1.5" stroke-linecap="round" stroke-linejoin="round"/>
<path d="M24.7805 10.4699C25.0814 10.9007 25.3449 11.3565 25.568 11.8324L28.8055 13.6324C29.2098 15.443 29.214 17.32 28.818 19.1324L25.568 20.9324C25.3449 21.4082 25.0814 21.864 24.7805 22.2949L24.843 26.0074C23.4709 27.2577 21.847 28.1996 20.0805 28.7699L16.893 26.8574C16.3687 26.8949 15.8423 26.8949 15.318 26.8574L12.143 28.7574C10.3709 28.1975 8.74162 27.2592 7.36801 26.0074L7.43051 22.3074C7.13209 21.8706 6.86877 21.4108 6.64301 20.9324L3.40551 19.1324C3.00125 17.3218 2.99699 15.4448 3.39301 13.6324L6.64301 11.8324C6.86611 11.3565 7.12957 10.9007 7.43051 10.4699L7.36801 6.75737C8.74007 5.50708 10.364 4.56512 12.1305 3.99487L15.318 5.90737C15.8423 5.86987 16.3687 5.86987 16.893 5.90737L20.068 4.00737C21.8401 4.56724 23.4694 5.50556 24.843 6.75737L24.7805 10.4699Z" stroke="#00365A" stroke-width="1.5" stroke-linecap="round" stroke-linejoin="round"/>
</svg>
