<svg width="24" height="24" viewBox="0 0 24 24" fill="none" xmlns="http://www.w3.org/2000/svg">
<path d="M12.1499 15C12.9018 15 13.6229 14.6839 14.1546 14.1213C14.6863 13.5587 14.9849 12.7956 14.9849 12C14.9849 11.2044 14.6863 10.4413 14.1546 9.87868C13.6229 9.31607 12.9018 9 12.1499 9C11.3981 9 10.677 9.31607 10.1453 9.87868C9.61363 10.4413 9.31494 11.2044 9.31494 12C9.31494 12.7956 9.61363 13.5587 10.1453 14.1213C10.677 14.6839 11.3981 15 12.1499 15V15Z" stroke="#00365A" stroke-width="1.5" stroke-miterlimit="10" stroke-linecap="round" stroke-linejoin="round"/>
<path d="M2.69995 12.8801V11.1201C2.69995 10.0801 3.5032 9.22006 4.49545 9.22006C6.2059 9.22006 6.9052 7.94006 6.04525 6.37006C5.55385 5.47006 5.8468 4.30006 6.70675 3.78006L8.3416 2.79006C9.08815 2.32006 10.0521 2.60006 10.4962 3.39006L10.6002 3.58006C11.4507 5.15006 12.8493 5.15006 13.7092 3.58006L13.8132 3.39006C14.2573 2.60006 15.2212 2.32006 15.9678 2.79006L17.6026 3.78006C18.4626 4.30006 18.7555 5.47006 18.2641 6.37006C17.4042 7.94006 18.1035 9.22006 19.8139 9.22006C20.7967 9.22006 21.6094 10.0701 21.6094 11.1201V12.8801C21.6094 13.9201 20.8062 14.7801 19.8139 14.7801C18.1035 14.7801 17.4042 16.0601 18.2641 17.6301C18.7555 18.5401 18.4626 19.7001 17.6026 20.2201L15.9678 21.2101C15.2212 21.6801 14.2573 21.4001 13.8132 20.6101L13.7092 20.4201C12.8587 18.8501 11.4601 18.8501 10.6002 20.4201L10.4962 20.6101C10.0521 21.4001 9.08815 21.6801 8.3416 21.2101L6.70675 20.2201C6.29483 19.9691 5.99383 19.5554 5.86981 19.0698C5.74579 18.5843 5.80889 18.0665 6.04525 17.6301C6.9052 16.0601 6.2059 14.7801 4.49545 14.7801C3.5032 14.7801 2.69995 13.9201 2.69995 12.8801V12.8801Z" stroke="#00365A" stroke-width="1.5" stroke-miterlimit="10" stroke-linecap="round" stroke-linejoin="round"/>
</svg>
